# xmcd
# 
# Track frame offsets:
#     193
#     23581
#     52624
#     87585
#     104817
#     131919
#     161852
#     175544
#     203632
# 
# Disc length: 3144
# 
# Revision: 1
# Processed by: cddbd v1.5.2PL0 Copyright (c) Steve Scherf et al.
# Submitted via: BonkEnc v1.0.8
# 
DISCID=720c4609
DTITLE=Chris Speed, Cuong Vu, Skuli Sverrisson, Jim Block - Emit
DYEAR=2000
DGENRE=Contemporary Jazz
TTITLE0=Constance And Gorgia
TTITLE1=Suggestible
TTITLE2=Berance (Beranche)
TTITLE3=Waltzing
TTITLE4=Kosmia
TTITLE5=Tangents
TTITLE6=Tralala
TTITLE7=Kompa
TTITLE8=Transporter
EXTD=YEAR: 2000
EXTT0=
EXTT1=
EXTT2=
EXTT3=
EXTT4=
EXTT5=
EXTT6=
EXTT7=
EXTT8=
PLAYORDER=
